<?xml version="1.0" encoding="UTF-8"?>
<svg version="1.1" xmlns="http://www.w3.org/2000/svg" width="946" height="1023">
<path d="M0 0 C312.18 0 624.36 0 946 0 C946 337.59 946 675.18 946 1023 C633.82 1023 321.64 1023 0 1023 C0 685.41 0 347.82 0 0 Z " fill="#FCF9F6" transform="translate(0,0)"/>
<path d="M0 0 C11.22474629 -0.10210958 22.44934214 -0.18498662 33.67445374 -0.23427582 C39.04179844 -0.25805534 44.4087896 -0.28985026 49.77593803 -0.34224606 C54.83558092 -0.39105999 59.89477216 -0.41549344 64.95464134 -0.42153645 C66.81036913 -0.42780405 68.66609159 -0.44258613 70.5216732 -0.46670628 C89.09441133 -0.69768632 89.09441133 -0.69768632 96.74206352 5.09235477 C99.17956352 7.71735477 99.17956352 7.71735477 100.74206352 10.09235477 C101.25768852 10.50356571 101.77331352 10.91477665 102.30456352 11.33844852 C105.09554954 14.74375483 104.3124606 19.10516775 104.23425102 23.31110477 C103.45002288 29.33596859 100.75844252 33.90917122 97.74206352 39.09235477 C96.99956352 40.82485477 96.99956352 40.82485477 96.24206352 42.59235477 C90.24206352 56.59235477 90.24206352 56.59235477 86.74206352 60.09235477 C86.06913851 62.05925852 86.06913851 62.05925852 85.61706352 64.21735477 C85.32831352 65.49610477 85.03956352 66.77485477 84.74206352 68.09235477 C84.08206352 68.09235477 83.42206352 68.09235477 82.74206352 68.09235477 C82.47393852 68.81422977 82.20581352 69.53610477 81.92956352 70.27985477 C80.74206352 73.09235477 80.74206352 73.09235477 79.33581352 75.31110477 C77.46527839 78.57537197 76.28345132 81.8510441 75.05456352 85.40485477 C74.82962212 86.05003056 74.60468071 86.69520634 74.3729229 87.3599329 C73.82432819 88.93568365 73.28249393 90.51378531 72.74206352 92.09235477 C72.08206352 92.09235477 71.42206352 92.09235477 70.74206352 92.09235477 C70.41206352 93.41235477 70.08206352 94.73235477 69.74206352 96.09235477 C69.08206352 96.09235477 68.42206352 96.09235477 67.74206352 96.09235477 C67.55643852 96.75235477 67.37081352 97.41235477 67.17956352 98.09235477 C62.7907027 107.25171649 54.6687721 112.6960798 45.74206352 117.09235477 C40.11666671 118.75546674 35.14417106 119.37686649 29.30090141 119.33185673 C28.09652931 119.33487797 28.09652931 119.33487797 26.86782646 119.33796024 C25.13661415 119.34148491 23.40538891 119.34076458 21.67417908 119.3361845 C18.91731665 119.33053895 16.16086695 119.33983782 13.40403557 119.35338688 C5.56967161 119.39027715 -2.26455229 119.40914121 -10.09900093 119.3977747 C-14.90658705 119.39185995 -19.71359316 119.41049157 -24.52106094 119.4436636 C-26.3351555 119.45152083 -28.14931496 119.45047496 -29.96339417 119.43963909 C-46.05958669 119.34769239 -61.65020597 121.08083235 -74.25793648 132.09235477 C-74.95016304 132.66469852 -75.6423896 133.23704227 -76.35559273 133.82672977 C-85.05562385 141.67184455 -89.94074647 152.74789636 -94.16418648 163.46344852 C-95.13835977 165.80494362 -96.21428593 167.91624975 -97.50793648 170.09235477 C-98.94552336 172.55678943 -99.81334336 174.31364777 -100.25793648 177.09235477 C-100.91793648 177.09235477 -101.57793648 177.09235477 -102.25793648 177.09235477 C-103.24793648 180.39235477 -104.23793648 183.69235477 -105.25793648 187.09235477 C-105.91793648 187.09235477 -106.57793648 187.09235477 -107.25793648 187.09235477 C-108.24793648 190.39235477 -109.23793648 193.69235477 -110.25793648 197.09235477 C-110.91793648 197.09235477 -111.57793648 197.09235477 -112.25793648 197.09235477 C-112.45129585 197.75622196 -112.64465523 198.42008915 -112.84387398 199.10407352 C-113.1042646 199.98708134 -113.36465523 200.87008915 -113.63293648 201.77985477 C-114.01578804 203.08503056 -114.01578804 203.08503056 -114.40637398 204.41657352 C-115.23969673 207.03504181 -116.22500542 209.54731705 -117.25793648 212.09235477 C-116.51248888 212.0895894 -115.76704128 212.08682402 -114.99900436 212.08397484 C-96.88089446 212.01779167 -78.76280861 211.96811163 -60.64460373 211.93691826 C-51.88285806 211.92143337 -43.12119295 211.900313 -34.35949898 211.86603642 C-26.72496278 211.83618356 -19.09048491 211.81679158 -11.45589197 211.81008929 C-7.41145635 211.80617002 -3.36718765 211.79692584 0.6771946 211.7751646 C4.48073844 211.75486425 8.28404598 211.74850777 12.08763885 211.75303173 C13.48651156 211.75220362 14.88539184 211.7461995 16.28421783 211.73473835 C18.18835226 211.71989695 20.09261232 211.72516923 21.99679375 211.73159122 C23.59794816 211.72744316 23.59794816 211.72744316 25.23144913 211.72321129 C26.05995188 211.84502864 26.88845463 211.96684599 27.74206352 212.09235477 C30.45955698 216.16859496 30.61806857 219.3045341 29.74206352 224.09235477 C28.09745365 227.39225381 26.03265509 230.21335436 23.74206352 233.09235477 C23.11557915 233.92122196 22.48909477 234.75008915 21.84362602 235.60407352 C19.68933842 238.15478208 17.48578888 240.0893252 14.86706352 242.15485477 C8.66138537 247.13421191 2.62331063 252.28900398 -3.39904976 257.48786259 C-5.29703933 259.12610628 -7.19741034 260.76156078 -9.09778023 262.39704227 C-14.79837886 267.31214809 -20.46539604 272.24920951 -26.00793648 277.34235477 C-29.48251179 280.52952061 -33.02451284 283.57112175 -36.69543648 286.52985477 C-40.71396835 289.76986765 -44.5447483 293.14053718 -48.32043648 296.65485477 C-61.33026054 308.73675835 -61.33026054 308.73675835 -66.47668648 311.11969852 C-68.61354714 312.02405146 -68.61354714 312.02405146 -69.25793648 315.09235477 C-70.84900078 316.53037659 -72.50653798 317.89560812 -74.19543648 319.21735477 C-77.98984578 322.24309019 -81.6773011 325.31633204 -85.25793648 328.59235477 C-88.65392329 331.68790674 -92.11965178 334.64386685 -95.69543648 337.52985477 C-100.53099565 341.44337936 -105.13780695 345.55739076 -109.71887398 349.76422977 C-113.17901936 352.93691693 -116.70782995 356.02118336 -120.25793648 359.09235477 C-121.43634451 360.12488105 -122.61472761 361.15743577 -123.79309273 362.19001102 C-125.07277988 363.30359201 -126.35272968 364.41687124 -127.63293648 365.52985477 C-128.25273384 366.07496708 -128.8725312 366.62007938 -129.51111031 367.18171024 C-134.03072833 371.09235477 -134.03072833 371.09235477 -136.25793648 371.09235477 C-136.58793648 372.08235477 -136.91793648 373.07235477 -137.25793648 374.09235477 C-139.41028023 376.07282352 -139.41028023 376.07282352 -142.19543648 378.27985477 C-143.18672554 379.06876102 -144.1780146 379.85766727 -145.19934273 380.67047977 C-146.20867867 381.46969852 -147.2180146 382.26891727 -148.25793648 383.09235477 C-149.17445992 383.85032352 -150.09098335 384.60829227 -151.03528023 385.38922977 C-152.32112007 386.44883915 -152.32112007 386.44883915 -153.63293648 387.52985477 C-154.40379585 388.16794071 -155.17465523 388.80602665 -155.96887398 389.46344852 C-162.54382606 394.14221135 -169.46662733 393.65016213 -177.25793648 393.09235477 C-183.2935359 391.94371129 -186.90550501 387.97877761 -190.25793648 383.09235477 C-194.17268968 376.17629078 -194.3476698 370.05344892 -192.27356148 362.51422977 C-190.24038983 356.51511837 -188.24462288 352.0137953 -184.25793648 347.09235477 C-183.12651707 344.56307142 -183.12651707 344.56307142 -182.32043648 341.90485477 C-180.41540838 336.35348384 -177.96380925 331.28961041 -175.25793648 326.09235477 C-174.44336449 324.44754595 -173.63087373 322.80170482 -172.82043648 321.15485477 C-171.04080903 317.59002112 -169.17786085 314.08357275 -167.25793648 310.59235477 C-163.0529539 302.92826056 -159.1628827 295.34851772 -156.25793648 287.09235477 C-155.59793648 287.09235477 -154.93793648 287.09235477 -154.25793648 287.09235477 C-153.98981148 286.04047977 -153.72168648 284.98860477 -153.44543648 283.90485477 C-152.25793648 280.09235477 -152.25793648 280.09235477 -150.80090523 277.69001102 C-149.23917988 275.0607772 -148.32268291 272.61975746 -147.38293648 269.71735477 C-146.19193199 266.31189708 -145.07029207 263.53849032 -142.82043648 260.71735477 C-139.60466056 256.65063508 -138.16683024 251.9294977 -136.46887398 247.08063602 C-135.33993979 244.29471778 -134.11523374 242.41902335 -132.25793648 240.09235477 C-131.53459373 238.44839399 -130.81550628 236.80213313 -130.13684273 235.13922977 C-128.78438651 231.98950951 -127.20227434 228.96086744 -125.63684273 225.91266727 C-124.4246585 223.43335562 -123.2885776 220.93922992 -122.17175484 218.41608524 C-121.81294731 217.60622166 -121.45413979 216.79635807 -121.0844593 215.96195316 C-120.81170677 215.34498569 -120.53895424 214.72801823 -120.25793648 214.09235477 C-120.83146732 214.09512015 -121.40499817 214.09788553 -121.99590874 214.10073471 C-135.95045641 214.16698451 -149.90497653 214.21643894 -163.85964775 214.24779129 C-170.608028 214.26326096 -177.35630329 214.28435225 -184.10461617 214.31867313 C-190.61442104 214.35176523 -197.12415771 214.36919736 -203.63404274 214.3769865 C-206.12040361 214.38253897 -208.60675836 214.39338125 -211.09307289 214.40954494 C-214.56970929 214.43125235 -218.0458919 214.43432444 -221.52258492 214.43293095 C-222.55548653 214.44371677 -223.58838814 214.4545026 -224.6525898 214.46561527 C-225.60047371 214.46149128 -226.54835762 214.45736729 -227.52496529 214.45311832 C-228.7583243 214.45726639 -228.7583243 214.45726639 -230.01659966 214.46149826 C-232.86184587 213.99289216 -234.22113811 213.11975803 -236.25793648 211.09235477 C-237.01469323 204.28154396 -237.01469323 204.28154396 -234.94543648 201.02985477 C-234.38856148 200.39047977 -233.83168648 199.75110477 -233.25793648 199.09235477 C-232.24264107 196.76563613 -231.2430545 194.43201008 -230.25793648 192.09235477 C-229.7655146 191.29184696 -229.27309273 190.49133915 -228.76574898 189.66657352 C-227.32937544 187.21431922 -226.48391154 185.041407 -225.63293648 182.34235477 C-222.75480249 174.15074265 -218.41613606 166.68591279 -214.25793648 159.09235477 C-213.65981148 157.98376102 -213.06168648 156.87516727 -212.44543648 155.73297977 C-210.58069921 152.28321583 -208.71863637 148.85142357 -206.68371773 145.49860477 C-204.89814419 142.48514368 -203.60031843 139.31798131 -202.25793648 136.09235477 C-199.64292996 129.9788936 -196.77034536 124.02180307 -193.76965523 118.08844852 C-192.80171741 116.17008081 -191.84489605 114.24603851 -190.90246773 112.31501102 C-188.62398888 107.65289277 -186.13972317 103.41503481 -183.25793648 99.09235477 C-182.23828221 96.76754304 -181.23734046 94.43440778 -180.25793648 92.09235477 C-179.78356148 91.32922977 -179.30918648 90.56610477 -178.82043648 89.77985477 C-176.86916406 86.42366621 -175.57846029 82.93086636 -174.22278023 79.29938602 C-173.25793648 77.09235477 -173.25793648 77.09235477 -171.25793648 75.09235477 C-170.61541298 73.02361443 -170.61541298 73.02361443 -170.25793648 71.09235477 C-169.59793648 71.09235477 -168.93793648 71.09235477 -168.25793648 71.09235477 C-168.03106148 70.30860477 -167.80418648 69.52485477 -167.57043648 68.71735477 C-166.14824318 64.78939234 -164.33478159 61.21881927 -162.43371773 57.50641727 C-161.10125862 54.77067066 -160.10374341 52.01423327 -159.25793648 49.09235477 C-158.59793648 49.09235477 -157.93793648 49.09235477 -157.25793648 49.09235477 C-157.13805367 48.36661259 -157.01817085 47.6408704 -156.89465523 46.89313602 C-155.10727406 39.030852 -150.33148101 32.21642147 -145.25793648 26.09235477 C-144.63789742 25.33825321 -144.01785835 24.58415165 -143.37903023 23.80719852 C-132.99863718 11.63918397 -118.26516682 3.03067593 -102.25793648 1.09235477 C-99.6832027 0.98170843 -97.13207923 0.90872506 -94.55725288 0.88703251 C-93.81274691 0.87714991 -93.06824093 0.8672673 -92.30117416 0.85708523 C-89.82064757 0.82547569 -87.34010367 0.80061101 -84.85949898 0.77594852 C-83.07098238 0.75497176 -81.28246925 0.73369822 -79.49395943 0.71215153 C-73.62368976 0.6436226 -67.75333631 0.58595439 -61.88293648 0.52985477 C-60.88151871 0.52010372 -59.88010094 0.51035267 -58.84833717 0.50030613 C-46.02642213 0.37587633 -33.2044196 0.26787225 -20.382267 0.17114353 C-13.5881213 0.11955445 -6.79405849 0.06198581 0 0 Z " fill="#16797C" transform="translate(538.2579364776611,314.9076452255249)"/>
<path d="M0 0 C4.92167512 -0.02118638 9.84333419 -0.03679509 14.76504326 -0.04740334 C16.56291604 -0.05186115 18.36078567 -0.05789946 20.15864754 -0.065588 C22.59750412 -0.07545762 25.03628473 -0.07904634 27.47515869 -0.08074951 C28.19222174 -0.08491442 28.90928478 -0.08907932 29.64807701 -0.09337044 C34.49578991 -0.08648548 34.49578991 -0.08648548 35.61016846 1.02789307 C36.3903038 6.81054573 36.84220338 12.52940884 34.21173096 17.86383057 C30.06352318 23.23110349 24.96347414 27.45711588 19.64923096 31.62945557 C16.31067679 34.26425282 13.08073106 37.00134433 9.86016846 39.77789307 C8.98437134 40.53151123 8.98437134 40.53151123 8.09088135 41.300354 C6.88301529 42.34068423 5.67574901 43.3817112 4.46905518 44.42340088 C2.5710656 46.06164457 0.67069459 47.69709907 -1.22967529 49.33258057 C-6.93027393 54.24768638 -12.5972911 59.1847478 -18.13983154 64.27789307 C-21.61440686 67.4650589 -25.15640791 70.50666004 -28.82733154 73.46539307 C-32.84586341 76.70540594 -36.67664337 80.07607547 -40.45233154 83.59039307 C-53.46215561 95.67229664 -53.46215561 95.67229664 -58.60858154 98.05523682 C-60.7454422 98.95958975 -60.7454422 98.95958975 -61.38983154 102.02789307 C-62.98089584 103.46591488 -64.63843304 104.83114641 -66.32733154 106.15289307 C-70.12174084 109.17862848 -73.80919617 112.25187033 -77.38983154 115.52789307 C-80.78581836 118.62344503 -84.25154685 121.57940514 -87.82733154 124.46539307 C-92.66289071 128.37891765 -97.26970202 132.49292905 -101.85076904 136.69976807 C-105.31091443 139.87245522 -108.83972501 142.95672165 -112.38983154 146.02789307 C-113.56823957 147.06041934 -114.74662268 148.09297407 -115.92498779 149.12554932 C-117.20467494 150.2391303 -118.48462474 151.35240953 -119.76483154 152.46539307 C-120.38462891 153.01050537 -121.00442627 153.55561768 -121.64300537 154.11724854 C-126.1626234 158.02789307 -126.1626234 158.02789307 -128.38983154 158.02789307 C-128.71983154 159.01789307 -129.04983154 160.00789307 -129.38983154 161.02789307 C-131.54217529 163.00836182 -131.54217529 163.00836182 -134.32733154 165.21539307 C-135.81426514 166.39875244 -135.81426514 166.39875244 -137.33123779 167.60601807 C-138.8452417 168.80484619 -138.8452417 168.80484619 -140.38983154 170.02789307 C-141.30635498 170.78586182 -142.22287842 171.54383057 -143.16717529 172.32476807 C-144.02440186 173.03117432 -144.88162842 173.73758057 -145.76483154 174.46539307 C-146.92112061 175.42252197 -146.92112061 175.42252197 -148.10076904 176.39898682 C-154.67572112 181.07774964 -161.5985224 180.58570042 -169.38983154 180.02789307 C-175.42543097 178.87924958 -179.03740008 174.9143159 -182.38983154 170.02789307 C-186.30458475 163.11182907 -186.47956487 156.98898722 -184.40545654 149.44976807 C-182.37228489 143.45065666 -180.37651794 138.94933359 -176.38983154 134.02789307 C-175.25841213 131.49860972 -175.25841213 131.49860972 -174.45233154 128.84039307 C-172.54730345 123.28902213 -170.09570432 118.2251487 -167.38983154 113.02789307 C-166.57525955 111.38308424 -165.76276879 109.73724311 -164.95233154 108.09039307 C-163.1727041 104.52555941 -161.30975592 101.01911105 -159.38983154 97.52789307 C-155.18484896 89.86379885 -151.29477776 82.28405601 -148.38983154 74.02789307 C-147.72983154 74.02789307 -147.06983154 74.02789307 -146.38983154 74.02789307 C-146.12170654 72.97601807 -145.85358154 71.92414307 -145.57733154 70.84039307 C-144.38983154 67.02789307 -144.38983154 67.02789307 -142.93280029 64.62554932 C-141.37107494 61.9963155 -140.45457797 59.55529575 -139.51483154 56.65289307 C-138.32382706 53.24743537 -137.20218714 50.47402861 -134.95233154 47.65289307 C-131.73655563 43.58617337 -130.29872531 38.865036 -128.60076904 34.01617432 C-127.47183485 31.23025607 -126.2471288 29.35456164 -124.38983154 27.02789307 C-123.66814139 25.38768818 -122.95044311 23.74531085 -122.27264404 22.08648682 C-120.50911683 17.97419105 -118.41115493 14.01786692 -116.38983154 10.02789307 C-115.83295654 8.89351807 -115.27608154 7.75914307 -114.70233154 6.59039307 C-113.38983154 4.02789307 -113.38983154 4.02789307 -111.38983154 1.02789307 C-108.25503896 0.71152141 -105.31410835 0.59057039 -102.17474365 0.59552002 C-101.21618469 0.58532837 -100.25762573 0.57513672 -99.27001953 0.56463623 C-96.06901333 0.53423699 -92.86830778 0.52517609 -89.66717529 0.51617432 C-87.41411888 0.49929522 -85.1610717 0.48114073 -82.90803528 0.46177673 C-76.92816158 0.41402947 -70.94832471 0.38445095 -64.96832275 0.3583374 C-59.05210053 0.32917977 -53.13602689 0.28208924 -47.21990967 0.23687744 C-34.69126952 0.14497218 -22.16263934 0.0852645 -9.63375092 0.04004669 C-6.42249368 0.02801544 -3.21124829 0.0142039 0 0 Z " fill="#126B6F" transform="translate(530.3898315429688,527.9721069335938)"/>
<path d="M0 0 C1.17571451 3.67410785 1.07366746 7.16929183 1 11 C3.37534709 12.18767354 4.84124076 12.13745938 7.49246216 12.15821838 C8.43759674 12.1680072 9.38273132 12.17779602 10.35650635 12.18788147 C11.91664459 12.19651466 11.91664459 12.19651466 13.50830078 12.20532227 C15.14733871 12.22017166 15.14733871 12.22017166 16.81948853 12.23532104 C20.44474086 12.2670031 24.07000632 12.29171998 27.6953125 12.31640625 C30.20352527 12.33696999 32.71173452 12.3579663 35.21994019 12.37937927 C41.1555654 12.42900433 47.09121383 12.4742541 53.02688873 12.51740164 C60.44634784 12.57160175 67.86574876 12.63256374 75.28515625 12.69335938 C88.52339793 12.80101418 101.76167888 12.90263076 115 13 C115.33 12.01 115.66 11.02 116 10 C116.495 10.99 116.495 10.99 117 12 C117.7454476 11.99723462 118.4908952 11.99446924 119.25893211 11.99162006 C137.37704201 11.92543689 155.49512787 11.87575685 173.61333275 11.84456348 C182.37507842 11.82907859 191.13674353 11.80795822 199.8984375 11.77368164 C207.5329737 11.74382878 215.16745157 11.72443681 222.80204451 11.71773452 C226.84648012 11.71381524 230.89074883 11.70457106 234.93513107 11.68280983 C238.73867492 11.66250947 242.54198246 11.656153 246.34557533 11.66067696 C247.74444804 11.65984885 249.14332831 11.65384473 250.54215431 11.64238358 C252.44628873 11.62754217 254.35054879 11.63281445 256.25473022 11.63923645 C257.85588464 11.63508838 257.85588464 11.63508838 259.4893856 11.63085651 C260.31788836 11.75267386 261.14639111 11.87449121 262 12 C264.08940868 15.13411302 264.27364412 15.97450472 264.25 19.5625 C264.25515625 20.34753906 264.2603125 21.13257813 264.265625 21.94140625 C264 24 264 24 262 26 C261.67 22.04 261.34 18.08 261 14 C212.82 14 164.64 14 115 14 C114.67 14.66 114.34 15.32 114 16 C114 15.34 114 14.68 114 14 C113.42646915 14.00276538 112.85293831 14.00553076 112.26202774 14.00837994 C98.30748007 14.07462973 84.35295995 14.12408417 70.39828873 14.15543652 C63.64990848 14.17090619 56.90163319 14.19199747 50.15332031 14.22631836 C43.64351544 14.25941045 37.13377876 14.27684259 30.62389374 14.28463173 C28.13753287 14.29018419 25.65117812 14.30102648 23.16486359 14.31719017 C19.68822719 14.33889758 16.21204458 14.34196967 12.73535156 14.34057617 C11.70244995 14.351362 10.66954834 14.36214783 9.60534668 14.3732605 C8.65746277 14.36913651 7.70957886 14.36501251 6.73297119 14.36076355 C5.49961218 14.36491162 5.49961218 14.36491162 4.24133682 14.36914349 C1.45026819 13.90946032 0.06286071 12.90281697 -2 11 C-2.4609375 9.0625 -2.4609375 9.0625 -2.375 7 C-2.36210937 6.319375 -2.34921875 5.63875 -2.3359375 4.9375 C-2 3 -2 3 0 0 Z " fill="#5D9FA0" transform="translate(304,515)"/>
<path d="M0 0 C12.21 0 24.42 0 37 0 C36.67 0.99 36.34 1.98 36 3 C34.68 3 33.36 3 32 3 C32 2.34 32 1.68 32 1 C21.44 1 10.88 1 0 1 C0 0.67 0 0.34 0 0 Z " fill="#1F7E7E" transform="translate(524,528)"/>
<path d="M0 0 C0 4.3492384 -2.28005222 6.00254221 -5.1171875 9.12109375 C-7.24466717 11.24415956 -9.22756538 12.81181374 -12 14 C-12.66 13.67 -13.32 13.34 -14 13 C-12.54712339 11.66072279 -11.08752741 10.32873153 -9.625 9 C-8.81289063 8.2575 -8.00078125 7.515 -7.1640625 6.75 C-5 5 -5 5 -3 5 C-2.690625 4.360625 -2.38125 3.72125 -2.0625 3.0625 C-1 1 -1 1 0 0 Z " fill="#B6D5D6" transform="translate(561,548)"/>
<path d="M0 0 C0.66 0.33 1.32 0.66 2 1 C0.92807816 2.3218362 -0.15802695 3.63217927 -1.25 4.9375 C-1.85328125 5.66839844 -2.4565625 6.39929688 -3.078125 7.15234375 C-5.10741134 9.10326334 -6.254407 9.61731779 -9 10 C-8.06409496 8.8944811 -7.12620142 7.79064547 -6.1875 6.6875 C-5.66542969 6.07261719 -5.14335937 5.45773437 -4.60546875 4.82421875 C-3.12827531 3.14575321 -1.59960869 1.56117966 0 0 Z " fill="#BFDADB" transform="translate(466,444)"/>
<path d="M0 0 C0.99 0.33 1.98 0.66 3 1 C3 3.31 3 5.62 3 8 C2.01 8.33 1.02 8.66 0 9 C0 6.03 0 3.06 0 0 Z " fill="#D4E7E7" transform="translate(642,332)"/>
<path d="M0 0 C0.8723412 2.99480917 1.10829766 5.63575911 1.0625 8.75 C1.05347656 9.54921875 1.04445313 10.3484375 1.03515625 11.171875 C1.01775391 12.07679688 1.01775391 12.07679688 1 13 C0.01 12.34 -0.98 11.68 -2 11 C-2.56737589 3.85106383 -2.56737589 3.85106383 0 0 Z " fill="#70ADAF" transform="translate(304,515)"/>
<path d="M0 0 C0.66 0.33 1.32 0.66 2 1 C-0.20866368 4.4873637 -2.04746952 5.81424086 -6 7 C-6.99 7 -7.98 7 -9 7 C-6.04399553 4.50381844 -3.22113035 2.14742023 0 0 Z " fill="#58A0A2" transform="translate(412,324)"/>
<path d="M0 0 C0.66 0 1.32 0 2 0 C1.1875 2.4375 1.1875 2.4375 0 5 C-0.99 5.33 -1.98 5.66 -3 6 C-3 7.65 -3 9.3 -3 11 C-3.66 11 -4.32 11 -5 11 C-3.04225352 3.16901408 -3.04225352 3.16901408 0 0 Z " fill="#327D83" transform="translate(354,662)"/>
<path d="M0 0 C0.88336837 2.4667645 1.1312406 3.63859372 0.22265625 6.140625 C-0.16019531 6.83671875 -0.54304688 7.5328125 -0.9375 8.25 C-1.31777344 8.95640625 -1.69804687 9.6628125 -2.08984375 10.390625 C-2.39019531 10.92171875 -2.69054687 11.4528125 -3 12 C-3.66 12 -4.32 12 -5 12 C-4.54738642 10.56068883 -4.08767021 9.12361001 -3.625 7.6875 C-3.24214844 6.48673828 -3.24214844 6.48673828 -2.8515625 5.26171875 C-2 3 -2 3 0 0 Z " fill="#3A8F93" transform="translate(336,451)"/>
<path d="M0 0 C0.99 0.33 1.98 0.66 3 1 C1.52307692 5.67692308 1.52307692 5.67692308 -1.125 7.3125 C-2.053125 7.6528125 -2.053125 7.6528125 -3 8 C-2.5359375 7.13375 -2.5359375 7.13375 -2.0625 6.25 C-1.07416636 4.15705816 -0.4831387 2.25464725 0 0 Z " fill="#449497" transform="translate(368,386)"/>
<path d="M0 0 C0.66 0.33 1.32 0.66 2 1 C0.35 2.98 -1.3 4.96 -3 7 C-3.99 6.67 -4.98 6.34 -6 6 C-4.02 4.02 -2.04 2.04 0 0 Z " fill="#B5D3D4" transform="translate(537,569)"/>
</svg>
